Coordinates
version=1
nRows=14
nColumns=36
inDegrees=yes

Units are S.I. units (second, meters, Newtons, ...)
If the header above contains a line with 'inDegrees', this indicates whether rotational values are in degrees (yes) or radians (no).

endheader
time	pelvis_tilt	pelvis_list	pelvis_rotation	pelvis_tx	pelvis_ty	pelvis_tz	hip_flexion_r	hip_adduction_r	hip_rotation_r	knee_angle_r	knee_angle_r_beta	ankle_angle_r	subtalar_angle_r	mtp_angle_r	hip_flexion_l	hip_adduction_l	hip_rotation_l	knee_angle_l	knee_angle_l_beta	ankle_angle_l	subtalar_angle_l	mtp_angle_l	lumbar_extension	lumbar_bending	lumbar_rotation	arm_flex_r	arm_add_r	arm_rot_r	elbow_flex_r	pro_sup_r	arm_flex_l	arm_add_l	arm_rot_l	elbow_flex_l	pro_sup_l
      3.01666670	     -1.55508259	     -0.48918666	     -0.64986218	      0.20644013	      0.97310930	      0.07197994	      4.23967046	      0.13830401	    -12.84580629	      3.15627270	      0.05508735	     -1.02942950	      3.04076722	     -7.49999987	      2.94175772	     -2.57046587	    -10.17667334	      1.05858964	      0.01847587	      3.69948038	     10.69271294	     -7.49999987	      3.09999461	      1.32179368	      2.60516191	     33.83755136	     10.73343727	     55.81262238	    122.52267658	     96.69185789	     48.56113815	     10.68624514	     67.72087787	    125.22107503	     67.88035439
      3.03333330	     -1.34707780	     -0.71407131	     -0.40249214	      0.20724790	      0.97074603	      0.07272363	      4.15802436	      0.24631676	    -12.73515281	      3.45691411	      0.06033453	     -1.14979182	      3.18322446	     -7.49999987	      2.74876267	     -2.78475315	    -10.11047547	      1.05719237	      0.01845149	      3.89171353	     10.82161844	     -7.49999987	      3.17929956	      1.57016672	      2.45464267	     33.81153248	     10.49026123	     54.96737161	    122.38187655	     96.19133205	     48.82483864	     10.44744993	     67.46504953	    125.05896732	     67.68624563
      3.05000000	     -1.22203159	     -0.82943263	     -0.16874667	      0.20888362	      0.97670242	      0.07246486	      4.10733830	      0.20680308	    -12.13625895	      3.76667857	      0.06574094	     -1.32418430	      3.30769256	     -7.49999987	      2.61277053	     -2.92935312	     -9.61447953	      1.09957752	      0.01919125	      3.71319523	     10.78508514	     -7.49999987	      3.26980538	      1.70659163	      2.13999815	     33.42315435	      9.99188089	     53.55219566	    122.05442565	     96.16334314	     48.73391961	     10.24778109	     67.47020306	    125.22171879	     67.72532837
      3.06666670	     -1.12366470	     -0.98870038	      0.01888795	      0.20775219	      0.97600433	      0.07192988	      4.16309387	      0.20644568	    -11.33053724	      4.05699524	      0.07080792	     -1.36265935	      3.31473151	     -7.49999987	      2.59400811	     -3.06710563	     -9.32197723	      1.18586538	      0.02069726	      3.71772540	     10.43536607	     -7.49999987	      3.30658344	      1.85875935	      1.91783688	     33.13481153	      9.65550664	     52.23468315	    122.08477402	     96.82967286	     48.86918500	     10.27315520	     67.51939832	    125.11143970	     68.21863855
      3.08333330	     -0.96525803	     -1.08768619	      0.19139033	      0.20917588	      0.97536564	      0.07201638	      4.07046417	      0.15865929	    -10.57302089	      4.34845265	      0.07589482	     -1.07401383	      3.74559538	     -7.49999987	      2.48245022	     -3.18632104	     -8.99724681	      1.27865566	      0.02231675	      3.74917456	     10.28377491	     -7.49999987	      3.28945144	      2.00849890	      1.64433385	     32.82163264	      9.11299419	     50.15623458	    121.81113768	     96.26735248	     49.01961417	     10.22268480	     67.41954607	    125.20342188	     68.33750465
      3.10000000	     -0.88671689	     -1.18012831	      0.21682652	      0.20914776	      0.97473514	      0.07130089	      4.16628444	      0.13274766	     -9.90340655	      4.71519125	      0.08229561	     -0.93827401	      3.69513470	     -7.49999987	      2.42881524	     -3.32196344	     -8.66438173	      1.38538578	      0.02417954	      3.84717979	     10.09675011	     -7.49999987	      3.27899811	      2.12382680	      1.29824811	     32.66167414	      8.99438874	     48.91801920	    121.62111476	     96.80236500	     49.19334032	     10.28502294	     67.44549967	    125.29597808	     68.96596395
      3.11666670	     -0.73514653	     -1.26351868	      0.19324042	      0.20691980	      0.97310379	      0.07156536	      4.15557542	      0.14754768	     -9.73882866	      4.98201410	      0.08695255	     -0.57003056	      4.10010025	     -7.49999987	      2.43375742	     -3.40679108	     -8.46119926	      1.56958558	      0.02739444	      4.09322060	      9.84766162	     -7.49999987	      3.12605377	      2.21090767	      0.91171963	     32.88677732	      9.15873452	     48.84831326	    121.35913721	     94.05962567	     49.50768865	     10.38492232	     67.46511045	    125.63522761	     68.69569922
      3.13333330	     -0.69965363	     -1.33236359	      0.01835200	      0.20602764	      0.96769391	      0.07096355	      4.30474779	      0.23675775	     -9.00402200	      5.24203430	      0.09149076	     -0.24671218	      3.36592024	     -7.49999987	      2.50553939	     -3.52044072	     -8.36915690	      1.76260094	      0.03076319	      4.50746491	      9.65161159	     -7.49999987	      3.07382414	      2.31368394	      0.72284883	     32.86361932	      8.85144458	     47.40794791	    121.06898517	     96.55746646	     50.03344379	     10.59983809	     67.24416017	    125.77281816	     69.54644730
      3.15000000	     -0.72044393	     -1.32222504	     -0.14252195	      0.20564206	      0.96038679	      0.07294049	      4.50185712	      0.29130533	     -8.45007845	      5.49486196	      0.09590343	      0.57628315	      2.98057544	     -7.49999987	      2.73412211	     -3.58777579	     -8.02824571	      2.03853873	      0.03557921	      5.09373277	      9.04118527	     -7.49999987	      3.06735909	      2.31686775	      0.53252818	     33.18040047	      8.83259826	     46.73266270	    120.78888679	     95.42875644	     50.41120416	     10.70756677	     66.92092642	    126.13408678	     69.30325536
      3.16666670	     -0.73548303	     -1.21066464	     -0.33495996	      0.20417431	      0.96435644	      0.07372550	      4.53114513	      0.28075885	     -8.34212555	      5.37563673	      0.09382256	      0.91936471	      2.96659180	     -7.49999987	      2.97008490	     -3.56883076	     -8.15590498	      2.24685648	      0.03921504	      5.24711284	      8.82780822	     -7.49999987	      2.93110390	      2.10942800	      0.41499598	     33.24872011	      8.77644419	     46.62718109	    120.61551578	     95.47990523	     50.60826681	     10.80912559	     66.89004164	    126.27960809	     69.33153186
      3.18333330	     -0.80445447	     -1.11642971	     -0.57287395	      0.20377349	      0.96341121	      0.07341109	      4.60800771	      0.26318546	     -8.17481287	      5.26595325	      0.09190822	      1.64005002	      3.22749185	     -7.49999987	      3.19261212	     -3.55494526	     -7.91972357	      2.42889224	      0.04239217	      5.43002803	      8.29278346	     -7.49999987	      2.84481059	      2.08380748	      0.20462747	     33.21705718	      8.95773170	     46.65360442	    120.20484858	     97.52985533	     50.58899003	     10.74626463	     66.95289661	    126.70543267	     70.28897668
      3.20000000	     -0.90427044	     -0.97677742	     -0.81904990	      0.20181496	      0.96531824	      0.07495846	      4.56079528	      0.22274344	     -7.99784531	      4.93951266	      0.08621076	      2.00901483	      3.66655624	     -7.49999987	      3.40230796	     -3.50649998	     -8.12913815	      2.45746281	      0.04289082	      5.45145768	      8.49124571	     -7.49999987	      2.78689098	      1.93692848	      0.14915794	     32.97797024	      8.79111025	     46.38716087	    120.12922786	     95.94502442	     50.30340249	     10.81743119	     67.23841555	    127.07129590	     69.90033220
      3.21666670	     -1.08880258	     -0.88200214	     -1.05792885	      0.20122400	      0.96336363	      0.07637375	      4.62690977	      0.24515566	     -7.74145940	      4.55707473	      0.07953596	      2.07424996	      3.58269624	     -7.49999987	      3.69585583	     -3.49126239	     -7.88840000	      2.41343034	      0.04212231	      5.33962324	      8.06335576	     -7.49999987	      2.87533053	      1.80158793	     -0.09156592	     32.75477003	      9.00572368	     46.54703078	    120.25449623	     93.70606039	     49.88627897	     10.69166811	     67.14988697	    127.51705818	     68.97227383
      3.23333330	     -0.98849723	     -0.73090927	     -1.34243890	      0.19866757	      0.96600288	      0.07691378	      4.38070047	      0.15101163	     -7.69008048	      4.10586913	      0.07166093	      2.42736099	      4.53651096	     -7.49999987	      3.62165188	     -3.40364618	     -8.23756232	      2.25085922	      0.03928490	      5.37491792	      8.60398068	     -7.49999987	      2.55575290	      1.53960100	     -0.18835716	     32.74260644	      9.23057760	     47.63094361	    120.44400359	     91.83315318	     49.67030385	     10.61546318	     67.51599243	    127.47623255	     68.49901577
